<?xml version="1.0" encoding="iso-8859-1"?>
<!DOCTYPE svg PUBLIC "-//W3C//DTD SVG 1.1//EN" "http://www.w3.org/Graphics/SVG/1.1/DTD/svg11.dtd">
<svg version="1.1" id="Capa_1" xmlns="http://www.w3.org/2000/svg" xmlns:xlink="http://www.w3.org/1999/xlink" 
	width="64px" height="64px" viewBox="32 64 64 80" transform="translate(64, 128)" 
	style="enable-background:new 0 0 64 64; fill: yellow; border: 1px solid #cccccc;" xml:space="preserve">
<path d="m0.291118,-22.619192c-0.575451,0 -1.08749,0.234985 -1.519359,0.665649c-0.431809,0.42688 -0.788609,1.040253 -1.085949,
1.808105c-0.593941,1.531158 -0.95956,3.681854 -1.159203,6.261719c-0.199467,2.572479 -0.233219,5.567566 -0.15033,8.775634c-7.108228,
2.915528 -21.525589,8.934815 -22.683679,10.281281c-1.54183,1.787629 -1.043558,3.841767 -0.422167,5.202515l23.701248,-4.824829c0.500931,
6.289032 1.213131,12.513184 1.833881,17.39212c-2.317822,0.67868 -6.64439,2.01828 -7.537341,2.848236c-1.23055,1.142456 -1.23055,4.839844 -1.23055,4.839844l9.700557,
-0.790009c0.228252,1.595032 0.371323,2.522459 0.371323,2.522459l0.01432,0.084106l0.076439,0l0.178528,0l0.076462,0l0.014381,-0.084106c0,0 0.14267,-0.927427 0.371319,-2.522459l9.703541,0.790009c0,0 0,-3.697388 -1.2304,-4.839844c-0.893612,-0.829956 -5.223493,-2.172974 -7.540463,-2.851593c0.619503,-4.865326 1.33041,-11.066406 1.831173,-17.331177l23.423596,4.767242c0.62133,-1.360748 1.122322,-3.414886 -0.419777,-5.202515c-1.143545,-1.32962 -15.212379,-7.216278 -22.408552,-10.170349c0.08593,-3.248626 0.054611,-6.285491 -0.14716,-8.886566l0,-0.005127c-0.200289,-2.576385 -0.566008,-4.725433 -1.159449,-6.256592c-0.297218,
-0.767853 -0.651359,-1.379547 -1.083069,-1.808105c-0.431911,-0.430664 -0.943932,-0.665649 -1.519322,-0.665649l0,0z"/>
</svg>
