<?xml version="1.0" encoding="UTF-8" standalone="no"?>
<!-- Generator: Adobe Illustrator 13.0.2, SVG Export Plug-In . SVG Version: 6.00 Build 14948)  -->

<svg
   xmlns:dc="http://purl.org/dc/elements/1.1/"
   xmlns:cc="http://creativecommons.org/ns#"
   xmlns:rdf="http://www.w3.org/1999/02/22-rdf-syntax-ns#"
   xmlns:svg="http://www.w3.org/2000/svg"
   xmlns="http://www.w3.org/2000/svg"
   xmlns:sodipodi="http://sodipodi.sourceforge.net/DTD/sodipodi-0.dtd"
   xmlns:inkscape="http://www.inkscape.org/namespaces/inkscape"
   version="1.1"
   id="Layer_1"
   x="0px"
   y="0px"
   width="18"
   height="18"
   viewBox="0 0 18 18"
   xml:space="preserve"
   inkscape:version="0.91 r13725"
   sodipodi:docname="airport1.svg"><metadata
   id="metadata3349"><rdf:RDF><cc:Work
       rdf:about=""><dc:format>image/svg+xml</dc:format><dc:type
         rdf:resource="http://purl.org/dc/dcmitype/StillImage" /><dc:title></dc:title></cc:Work></rdf:RDF></metadata><defs
   id="defs3347" /><sodipodi:namedview
   pagecolor="#ffffff"
   bordercolor="#666666"
   borderopacity="1"
   objecttolerance="10"
   gridtolerance="10"
   guidetolerance="10"
   inkscape:pageopacity="0"
   inkscape:pageshadow="2"
   inkscape:window-width="1072"
   inkscape:window-height="965"
   id="namedview3345"
   showgrid="false"
   inkscape:zoom="6.3754701"
   inkscape:cx="3.4442231"
   inkscape:cy="5.6765759"
   inkscape:window-x="2195"
   inkscape:window-y="64"
   inkscape:window-maximized="0"
   inkscape:current-layer="Layer_1"
   inkscape:snap-grids="true"
   fit-margin-top="0"
   fit-margin-left="0"
   fit-margin-right="0"
   fit-margin-bottom="0" />
<g
   id="g3337"
   transform="scale(0.14983269,0.14981647)"
   inkscape:transform-center-x="-0.78425588"
   inkscape:transform-center-y="-0.31370235">
	<path
   d="m 105.771,120.147 c 7.933,0 14.363,-6.438 14.363,-14.359 l 0,-91.436 C 120.134,6.422 113.702,0 105.771,0 L 14.337,0 C 6.408,0 0,6.422 0,14.352 l 0,91.436 c 0,7.922 6.408,14.359 14.337,14.359 l 91.434,0 z"
   id="path3339"
   inkscape:connector-curvature="0" />
	<path
   d="M 14.337,2.435 C 7.773,2.435 2.429,7.782 2.429,14.352 l 0,91.436 c 0,6.58 5.344,11.926 11.908,11.926 l 91.434,0 c 6.584,0 11.932,-5.346 11.932,-11.926 l 0,-91.436 c 0,-6.57 -5.348,-11.917 -11.932,-11.917 l -91.434,0 z"
   id="path3341"
   inkscape:connector-curvature="0" />
	<path
   style="fill:#aaaaaa"
   d="m 54.82,16.917 c 0.023,-7.053 10.66,-7.053 10.66,0.202 l 0,29.621 41.453,24.925 0,10.947 -41.264,-13.58 0,22.129 9.547,7.479 0,8.641 -14.723,-4.57 -14.719,4.57 0,-8.641 9.45,-7.479 0,-22.129 -41.289,13.58 0,-10.947 40.885,-24.925 0,-29.823 z"
   id="path3343"
   inkscape:connector-curvature="0" />
</g>
</svg>