<?xml version="1.0" encoding="iso-8859-1"?>
<!-- Generator: Adobe Illustrator 17.0.0, SVG Export Plug-In . SVG Version: 6.00 Build 0)  -->
<!DOCTYPE svg PUBLIC "-//W3C//DTD SVG 1.1//EN" "http://www.w3.org/Graphics/SVG/1.1/DTD/svg11.dtd">
<svg version="1.1" id="Capa_1" xmlns="http://www.w3.org/2000/svg" xmlns:xlink="http://www.w3.org/1999/xlink" x="0px" y="0px"
	 width="64px" height="64px" viewBox="0 0 64 64" style="enable-background:new 0 0 64 64; fill: yellow;" xml:space="preserve">
<path d="M31.498,6.135c-14.666,0-26.564,11.883-26.564,26.55c0,14.681,11.898,26.578,26.564,26.578
	c14.674,0,26.562-11.897,26.562-26.578C58.06,18.018,46.172,6.135,31.498,6.135z M33.391,47.466
	c-0.617,0.549-1.332,0.825-2.142,0.825c-0.838,0-1.569-0.271-2.193-0.814c-0.625-0.542-0.938-1.301-0.938-2.276
	c0-0.865,0.303-1.593,0.907-2.183c0.604-0.59,1.345-0.885,2.224-0.885c0.865,0,1.593,0.295,2.184,0.885
	c0.59,0.59,0.886,1.318,0.886,2.183C34.318,46.162,34.009,46.917,33.391,47.466z M41.084,28.394
	c-0.474,0.879-1.037,1.637-1.69,2.276c-0.651,0.639-1.822,1.713-3.512,3.223c-0.466,0.426-0.841,0.8-1.122,1.122
	c-0.281,0.323-0.491,0.618-0.628,0.886c-0.138,0.268-0.244,0.536-0.319,0.804c-0.075,0.267-0.188,0.738-0.341,1.411
	c-0.26,1.428-1.077,2.142-2.45,2.142c-0.714,0-1.314-0.233-1.803-0.7c-0.487-0.467-0.73-1.16-0.73-2.08
	c0-1.153,0.179-2.152,0.536-2.997c0.355-0.845,0.83-1.586,1.42-2.225c0.591-0.639,1.387-1.397,2.39-2.276
	c0.879-0.769,1.514-1.349,1.905-1.74c0.392-0.392,0.721-0.828,0.988-1.308c0.269-0.481,0.401-1.002,0.401-1.565
	c0-1.099-0.407-2.025-1.225-2.78c-0.817-0.755-1.871-1.133-3.162-1.133c-1.511,0-2.623,0.381-3.337,1.143
	c-0.714,0.762-1.317,1.884-1.812,3.367c-0.468,1.552-1.354,2.328-2.657,2.328c-0.769,0-1.418-0.271-1.947-0.813
	c-0.528-0.542-0.792-1.129-0.792-1.761c0-1.304,0.419-2.626,1.256-3.965c0.838-1.339,2.06-2.448,3.667-3.326
	c1.606-0.879,3.481-1.319,5.622-1.319c1.991,0,3.748,0.368,5.272,1.103c1.524,0.734,2.702,1.733,3.533,2.997
	c0.83,1.263,1.246,2.636,1.246,4.119C41.795,26.492,41.558,27.515,41.084,28.394z"/>
</svg>
